{
    "asset" : {
        "generator" : "Khronos glTF Blender I/O v1.8.19",
        "version" : "2.0"
    },
    "scene" : 0,
    "scenes" : [
        {
            "name" : "Scene",
            "nodes" : [
                0
            ]
        }
    ],
    "nodes" : [
        {
            "mesh" : 0,
            "name" : "Cube.001",
            "translation" : [
                0,
                0.05999999865889549,
                0
            ]
        }
    ],
    "materials" : [
        {
            "doubleSided" : true,
            "name" : "Material.003",
            "pbrMetallicRoughness" : {
                "baseColorFactor" : [
                    0.06527486443519592,
                    0.017647994682192802,
                    0.0017368369735777378,
                    1
                ],
                "metallicFactor" : 0,
                "roughnessFactor" : 0.4000000059604645
            }
        },
        {
            "doubleSided" : true,
            "name" : "Material",
            "pbrMetallicRoughness" : {
                "baseColorFactor" : [
                    0.575025737285614,
                    0.8000000715255737,
                    0.69886714220047,
                    1
                ],
                "metallicFactor" : 0.9142857193946838,
                "roughnessFactor" : 0.4000000059604645
            }
        }
    ],
    "meshes" : [
        {
            "name" : "Cube.001",
            "primitives" : [
                {
                    "attributes" : {
                        "POSITION" : 0,
                        "NORMAL" : 1
                    },
                    "indices" : 2,
                    "material" : 0
                },
                {
                    "attributes" : {
                        "POSITION" : 3,
                        "NORMAL" : 4
                    },
                    "indices" : 5,
                    "material" : 1
                }
            ]
        }
    ],
    "accessors" : [
        {
            "bufferView" : 0,
            "componentType" : 5126,
            "count" : 102,
            "max" : [
                1.0124638080596924,
                1.2467824220657349,
                0.5902704000473022
            ],
            "min" : [
                -1.0124638080596924,
                -0.04410398006439209,
                -0.5902701616287231
            ],
            "type" : "VEC3"
        },
        {
            "bufferView" : 1,
            "componentType" : 5126,
            "count" : 102,
            "type" : "VEC3"
        },
        {
            "bufferView" : 2,
            "componentType" : 5123,
            "count" : 186,
            "type" : "SCALAR"
        },
        {
            "bufferView" : 3,
            "componentType" : 5126,
            "count" : 164,
            "max" : [
                0.798774778842926,
                1.3594210147857666,
                0.6899276971817017
            ],
            "min" : [
                -0.787330687046051,
                -0.04410398006439209,
                -0.6855126619338989
            ],
            "type" : "VEC3"
        },
        {
            "bufferView" : 4,
            "componentType" : 5126,
            "count" : 164,
            "type" : "VEC3"
        },
        {
            "bufferView" : 5,
            "componentType" : 5123,
            "count" : 318,
            "type" : "SCALAR"
        }
    ],
    "bufferViews" : [
        {
            "buffer" : 0,
            "byteLength" : 1224,
            "byteOffset" : 0
        },
        {
            "buffer" : 0,
            "byteLength" : 1224,
            "byteOffset" : 1224
        },
        {
            "buffer" : 0,
            "byteLength" : 372,
            "byteOffset" : 2448
        },
        {
            "buffer" : 0,
            "byteLength" : 1968,
            "byteOffset" : 2820
        },
        {
            "buffer" : 0,
            "byteLength" : 1968,
            "byteOffset" : 4788
        },
        {
            "buffer" : 0,
            "byteLength" : 636,
            "byteOffset" : 6756
        }
    ],
    "buffers" : [
        {
            "byteLength" : 7392,
            "uri" : "data:application/octet-stream;base64,"
        }
    ]
}
