{
    "asset" : {
        "generator" : "Khronos glTF Blender I/O v1.8.19",
        "version" : "2.0"
    },
    "scene" : 0,
    "scenes" : [
        {
            "name" : "Scene",
            "nodes" : [
                0,
                1,
                2
            ]
        }
    ],
    "nodes" : [
        {
            "mesh" : 0,
            "name" : "Sphere",
            "scale" : [
                2.299999952316284,
                0.23000001907348633,
                2.299999952316284
            ],
            "translation" : [
                0,
                0.017084121704101562,
                0
            ]
        },
        {
            "mesh" : 1,
            "name" : "Rock1.005",
            "rotation" : [
                0,
                -0.38429534435272217,
                0,
                0.9232103228569031
            ],
            "scale" : [
                0.4000000059604645,
                0.4000000059604645,
                0.4000000059604645
            ],
            "translation" : [
                0,
                0,
                -2.5
            ]
        },
        {
            "mesh" : 2,
            "name" : "Branch.002",
            "rotation" : [
                -0.14777019619941711,
                -0.6439866423606873,
                -0.1286812275648117,
                0.7395176291465759
            ],
            "scale" : [
                0.89000004529953,
                0.6700000166893005,
                0.6200000047683716
            ],
            "translation" : [
                -0.8866354823112488,
                0.18400001525878906,
                0.20795494318008423
            ]
        }
    ],
    "materials" : [
        {
            "doubleSided" : true,
            "name" : "Material.003",
            "pbrMetallicRoughness" : {
                "baseColorFactor" : [
                    0.04518457129597664,
                    0.02207661047577858,
                    0.01029637735337019,
                    1
                ],
                "metallicFactor" : 0,
                "roughnessFactor" : 0.5
            }
        },
        {
            "doubleSided" : true,
            "name" : "Rock1_1.001",
            "pbrMetallicRoughness" : {
                "baseColorFactor" : [
                    0.2079184353351593,
                    0.2079184353351593,
                    0.2079184353351593,
                    1
                ],
                "metallicFactor" : 0,
                "roughnessFactor" : 0.5
            }
        },
        {
            "doubleSided" : true,
            "name" : "Branch1_1",
            "pbrMetallicRoughness" : {
                "baseColorFactor" : [
                    0.18446825444698334,
                    0.08150526136159897,
                    0.03984404727816582,
                    1
                ],
                "metallicFactor" : 0,
                "roughnessFactor" : 0.5
            }
        },
        {
            "doubleSided" : true,
            "name" : "Branch1_2",
            "pbrMetallicRoughness" : {
                "baseColorFactor" : [
                    0.5668382048606873,
                    0.33737584948539734,
                    0.15602286159992218,
                    1
                ],
                "metallicFactor" : 0,
                "roughnessFactor" : 0.5
            }
        }
    ],
    "meshes" : [
        {
            "name" : "Sphere",
            "primitives" : [
                {
                    "attributes" : {
                        "POSITION" : 0,
                        "NORMAL" : 1,
                        "TEXCOORD_0" : 2
                    },
                    "indices" : 3,
                    "material" : 0
                }
            ]
        },
        {
            "name" : "Icosphere.027",
            "primitives" : [
                {
                    "attributes" : {
                        "POSITION" : 4,
                        "NORMAL" : 5,
                        "TEXCOORD_0" : 6
                    },
                    "indices" : 7,
                    "material" : 1
                }
            ]
        },
        {
            "name" : "Cylinder.036",
            "primitives" : [
                {
                    "attributes" : {
                        "POSITION" : 8,
                        "NORMAL" : 9,
                        "TEXCOORD_0" : 10
                    },
                    "indices" : 11,
                    "material" : 2
                },
                {
                    "attributes" : {
                        "POSITION" : 12,
                        "NORMAL" : 13,
                        "TEXCOORD_0" : 14
                    },
                    "indices" : 15,
                    "material" : 3
                }
            ]
        }
    ],
    "accessors" : [
        {
            "bufferView" : 0,
            "componentType" : 5126,
            "count" : 1984,
            "max" : [
                0.9999997019767761,
                1,
                0.9999994039535522
            ],
            "min" : [
                -0.9999990463256836,
                -1,
                -0.9999987483024597
            ],
            "type" : "VEC3"
        },
        {
            "bufferView" : 1,
            "componentType" : 5126,
            "count" : 1984,
            "type" : "VEC3"
        },
        {
            "bufferView" : 2,
            "componentType" : 5126,
            "count" : 1984,
            "type" : "VEC2"
        },
        {
            "bufferView" : 3,
            "componentType" : 5123,
            "count" : 2880,
            "type" : "SCALAR"
        },
        {
            "bufferView" : 4,
            "componentType" : 5126,
            "count" : 1008,
            "max" : [
                11.759682655334473,
                1.047701358795166,
                11.687666893005371
            ],
            "min" : [
                -2.9133191108703613,
                -0.8435614109039307,
                -2.685211181640625
            ],
            "type" : "VEC3"
        },
        {
            "bufferView" : 5,
            "componentType" : 5126,
            "count" : 1008,
            "type" : "VEC3"
        },
        {
            "bufferView" : 6,
            "componentType" : 5126,
            "count" : 1008,
            "type" : "VEC2"
        },
        {
            "bufferView" : 7,
            "componentType" : 5123,
            "count" : 1008,
            "type" : "SCALAR"
        },
        {
            "bufferView" : 8,
            "componentType" : 5126,
            "count" : 294,
            "max" : [
                1.8285149335861206,
                3.8669161796569824,
                0.7801533937454224
            ],
            "min" : [
                -1.8994868993759155,
                -0.3619711399078369,
                -3.527463912963867
            ],
            "type" : "VEC3"
        },
        {
            "bufferView" : 9,
            "componentType" : 5126,
            "count" : 294,
            "type" : "VEC3"
        },
        {
            "bufferView" : 10,
            "componentType" : 5126,
            "count" : 294,
            "type" : "VEC2"
        },
        {
            "bufferView" : 11,
            "componentType" : 5123,
            "count" : 1050,
            "type" : "SCALAR"
        },
        {
            "bufferView" : 12,
            "componentType" : 5126,
            "count" : 224,
            "max" : [
                1.8285149335861206,
                3.9138591289520264,
                0.8465241193771362
            ],
            "min" : [
                -1.8994868993759155,
                -0.4350029230117798,
                -3.527463912963867
            ],
            "type" : "VEC3"
        },
        {
            "bufferView" : 13,
            "componentType" : 5126,
            "count" : 224,
            "type" : "VEC3"
        },
        {
            "bufferView" : 14,
            "componentType" : 5126,
            "count" : 224,
            "type" : "VEC2"
        },
        {
            "bufferView" : 15,
            "componentType" : 5123,
            "count" : 336,
            "type" : "SCALAR"
        }
    ],
    "bufferViews" : [
        {
            "buffer" : 0,
            "byteLength" : 23808,
            "byteOffset" : 0
        },
        {
            "buffer" : 0,
            "byteLength" : 23808,
            "byteOffset" : 23808
        },
        {
            "buffer" : 0,
            "byteLength" : 15872,
            "byteOffset" : 47616
        },
        {
            "buffer" : 0,
            "byteLength" : 5760,
            "byteOffset" : 63488
        },
        {
            "buffer" : 0,
            "byteLength" : 12096,
            "byteOffset" : 69248
        },
        {
            "buffer" : 0,
            "byteLength" : 12096,
            "byteOffset" : 81344
        },
        {
            "buffer" : 0,
            "byteLength" : 8064,
            "byteOffset" : 93440
        },
        {
            "buffer" : 0,
            "byteLength" : 2016,
            "byteOffset" : 101504
        },
        {
            "buffer" : 0,
            "byteLength" : 3528,
            "byteOffset" : 103520
        },
        {
            "buffer" : 0,
            "byteLength" : 3528,
            "byteOffset" : 107048
        },
        {
            "buffer" : 0,
            "byteLength" : 2352,
            "byteOffset" : 110576
        },
        {
            "buffer" : 0,
            "byteLength" : 2100,
            "byteOffset" : 112928
        },
        {
            "buffer" : 0,
            "byteLength" : 2688,
            "byteOffset" : 115028
        },
        {
            "buffer" : 0,
            "byteLength" : 2688,
            "byteOffset" : 117716
        },
        {
            "buffer" : 0,
            "byteLength" : 1792,
            "byteOffset" : 120404
        },
        {
            "buffer" : 0,
            "byteLength" : 672,
            "byteOffset" : 122196
        }
    ],
    "buffers" : [
        {
            "byteLength" : 122868,
            "uri" : "data:application/octet-stream;base64,"
        }
    ]
}
