{
    "asset" : {
        "generator" : "Khronos glTF Blender I/O v1.8.19",
        "version" : "2.0"
    },
    "scene" : 0,
    "scenes" : [
        {
            "name" : "Scene",
            "nodes" : [
                0
            ]
        }
    ],
    "nodes" : [
        {
            "mesh" : 0,
            "name" : "fence.028",
            "rotation" : [
                0,
                -0.8771460652351379,
                0,
                0.48022374510765076
            ],
            "scale" : [
                1,
                1,
                -1
            ],
            "translation" : [
                41.9705696105957,
                0.9699999690055847,
                40.85969924926758
            ]
        }
    ],
    "materials" : [
        {
            "doubleSided" : true,
            "name" : "Material.001",
            "pbrMetallicRoughness" : {
                "baseColorFactor" : [
                    1,
                    0.2563893795013428,
                    0.04768330231308937,
                    1
                ],
                "metallicFactor" : 0,
                "roughnessFactor" : 0.5
            }
        }
    ],
    "meshes" : [
        {
            "name" : "Cube.091",
            "primitives" : [
                {
                    "attributes" : {
                        "POSITION" : 0,
                        "NORMAL" : 1,
                        "TEXCOORD_0" : 2
                    },
                    "indices" : 3,
                    "material" : 0
                }
            ]
        }
    ],
    "accessors" : [
        {
            "bufferView" : 0,
            "componentType" : 5126,
            "count" : 23808,
            "max" : [
                105.23374938964844,
                0.9950001835823059,
                76.57908630371094
            ],
            "min" : [
                -0.24504172801971436,
                -1.0432116985321045,
                -50.33612060546875
            ],
            "type" : "VEC3"
        },
        {
            "bufferView" : 1,
            "componentType" : 5126,
            "count" : 23808,
            "type" : "VEC3"
        },
        {
            "bufferView" : 2,
            "componentType" : 5126,
            "count" : 23808,
            "type" : "VEC2"
        },
        {
            "bufferView" : 3,
            "componentType" : 5123,
            "count" : 35712,
            "type" : "SCALAR"
        }
    ],
    "bufferViews" : [
        {
            "buffer" : 0,
            "byteLength" : 285696,
            "byteOffset" : 0
        },
        {
            "buffer" : 0,
            "byteLength" : 285696,
            "byteOffset" : 285696
        },
        {
            "buffer" : 0,
            "byteLength" : 190464,
            "byteOffset" : 571392
        },
        {
            "buffer" : 0,
            "byteLength" : 71424,
            "byteOffset" : 761856
        }
    ],
    "buffers" : [
        {
            "byteLength" : 833280,
            "uri" : "data:application/octet-stream;base64,"
        }
    ]
}
