{
    "asset" : {
        "generator" : "Khronos glTF Blender I/O v1.8.19",
        "version" : "2.0"
    },
    "scene" : 0,
    "scenes" : [
        {
            "name" : "Scene",
            "nodes" : [
                0
            ]
        }
    ],
    "nodes" : [
        {
            "mesh" : 0,
            "name" : "foilage",
            "translation" : [
                38.22370147705078,
                0,
                -27.78969955444336
            ]
        }
    ],
    "materials" : [
        {
            "doubleSided" : true,
            "name" : "Mushroom4_1.001",
            "pbrMetallicRoughness" : {
                "baseColorFactor" : [
                    1,
                    0.6774550080299377,
                    0.3910706341266632,
                    1
                ],
                "metallicFactor" : 0,
                "roughnessFactor" : 0.5
            }
        },
        {
            "doubleSided" : true,
            "name" : "Mushroom4_2.001",
            "pbrMetallicRoughness" : {
                "baseColorFactor" : [
                    0.7742757201194763,
                    0.2715284824371338,
                    0.05924093350768089,
                    1
                ],
                "metallicFactor" : 0,
                "roughnessFactor" : 0.5
            }
        },
        {
            "doubleSided" : true,
            "name" : "Branch1_1.001",
            "pbrMetallicRoughness" : {
                "baseColorFactor" : [
                    0.18446825444698334,
                    0.08150526136159897,
                    0.03984404727816582,
                    1
                ],
                "metallicFactor" : 0,
                "roughnessFactor" : 0.5
            }
        },
        {
            "doubleSided" : true,
            "name" : "Branch1_2.001",
            "pbrMetallicRoughness" : {
                "baseColorFactor" : [
                    0.5668382048606873,
                    0.33737584948539734,
                    0.15602286159992218,
                    1
                ],
                "metallicFactor" : 0,
                "roughnessFactor" : 0.5
            }
        },
        {
            "doubleSided" : true,
            "name" : "Grass1_1.003",
            "pbrMetallicRoughness" : {
                "baseColorFactor" : [
                    0.06310639530420303,
                    0.20791122317314148,
                    0.028991948813199997,
                    1
                ],
                "metallicFactor" : 0,
                "roughnessFactor" : 0.5
            }
        },
        {
            "doubleSided" : true,
            "name" : "Grass1_1.002",
            "pbrMetallicRoughness" : {
                "baseColorFactor" : [
                    0.06310639530420303,
                    0.20791122317314148,
                    0.028991948813199997,
                    1
                ],
                "metallicFactor" : 0,
                "roughnessFactor" : 0.5
            }
        },
        {
            "doubleSided" : true,
            "name" : "Mushroom3_2.001",
            "pbrMetallicRoughness" : {
                "baseColorFactor" : [
                    0.800000011920929,
                    0.800000011920929,
                    0.800000011920929,
                    1
                ],
                "metallicFactor" : 0,
                "roughnessFactor" : 0.5
            }
        },
        {
            "doubleSided" : true,
            "name" : "Mushroom3_1.001",
            "pbrMetallicRoughness" : {
                "baseColorFactor" : [
                    0.8000000715255737,
                    0.030903631821274757,
                    0.03958727791905403,
                    1
                ],
                "metallicFactor" : 0,
                "roughnessFactor" : 0.5
            }
        }
    ],
    "meshes" : [
        {
            "name" : "Cylinder.140",
            "primitives" : [
                {
                    "attributes" : {
                        "POSITION" : 0,
                        "NORMAL" : 1,
                        "TEXCOORD_0" : 2
                    },
                    "indices" : 3,
                    "material" : 0
                },
                {
                    "attributes" : {
                        "POSITION" : 4,
                        "NORMAL" : 5,
                        "TEXCOORD_0" : 6
                    },
                    "indices" : 7,
                    "material" : 1
                },
                {
                    "attributes" : {
                        "POSITION" : 8,
                        "NORMAL" : 9,
                        "TEXCOORD_0" : 10
                    },
                    "indices" : 11,
                    "material" : 2
                },
                {
                    "attributes" : {
                        "POSITION" : 12,
                        "NORMAL" : 13,
                        "TEXCOORD_0" : 14
                    },
                    "indices" : 15,
                    "material" : 3
                },
                {
                    "attributes" : {
                        "POSITION" : 16,
                        "NORMAL" : 17,
                        "TEXCOORD_0" : 18
                    },
                    "indices" : 19,
                    "material" : 4
                },
                {
                    "attributes" : {
                        "POSITION" : 20,
                        "NORMAL" : 21,
                        "TEXCOORD_0" : 22
                    },
                    "indices" : 23,
                    "material" : 5
                },
                {
                    "attributes" : {
                        "POSITION" : 24,
                        "NORMAL" : 25,
                        "TEXCOORD_0" : 26
                    },
                    "indices" : 27,
                    "material" : 6
                },
                {
                    "attributes" : {
                        "POSITION" : 28,
                        "NORMAL" : 29,
                        "TEXCOORD_0" : 30
                    },
                    "indices" : 31,
                    "material" : 7
                }
            ]
        }
    ],
    "accessors" : [
        {
            "bufferView" : 0,
            "componentType" : 5126,
            "count" : 1120,
            "max" : [
                8.673643112182617,
                0.4258040189743042,
                64.74563598632812
            ],
            "min" : [
                -64.82749938964844,
                -1.524827908383486e-08,
                -15.437378883361816
            ],
            "type" : "VEC3"
        },
        {
            "bufferView" : 1,
            "componentType" : 5126,
            "count" : 1120,
            "type" : "VEC3"
        },
        {
            "bufferView" : 2,
            "componentType" : 5126,
            "count" : 1120,
            "type" : "VEC2"
        },
        {
            "bufferView" : 3,
            "componentType" : 5123,
            "count" : 1848,
            "type" : "SCALAR"
        },
        {
            "bufferView" : 4,
            "componentType" : 5126,
            "count" : 1652,
            "max" : [
                8.86318588256836,
                0.813351571559906,
                64.92438507080078
            ],
            "min" : [
                -64.9828109741211,
                0.2983107268810272,
                -15.587782859802246
            ],
            "type" : "VEC3"
        },
        {
            "bufferView" : 5,
            "componentType" : 5126,
            "count" : 1652,
            "type" : "VEC3"
        },
        {
            "bufferView" : 6,
            "componentType" : 5126,
            "count" : 1652,
            "type" : "VEC2"
        },
        {
            "bufferView" : 7,
            "componentType" : 5123,
            "count" : 1932,
            "type" : "SCALAR"
        },
        {
            "bufferView" : 8,
            "componentType" : 5126,
            "count" : 2100,
            "max" : [
                8.297762870788574,
                0.5317587852478027,
                69.27937316894531
            ],
            "min" : [
                -77.44693756103516,
                -0.2134617567062378,
                -14.49921703338623
            ],
            "type" : "VEC3"
        },
        {
            "bufferView" : 9,
            "componentType" : 5126,
            "count" : 2100,
            "type" : "VEC3"
        },
        {
            "bufferView" : 10,
            "componentType" : 5126,
            "count" : 2100,
            "type" : "VEC2"
        },
        {
            "bufferView" : 11,
            "componentType" : 5123,
            "count" : 2100,
            "type" : "SCALAR"
        },
        {
            "bufferView" : 12,
            "componentType" : 5126,
            "count" : 672,
            "max" : [
                8.368457794189453,
                0.21099616587162018,
                69.27937316894531
            ],
            "min" : [
                -77.44693756103516,
                -0.2134617567062378,
                -14.49921703338623
            ],
            "type" : "VEC3"
        },
        {
            "bufferView" : 13,
            "componentType" : 5126,
            "count" : 672,
            "type" : "VEC3"
        },
        {
            "bufferView" : 14,
            "componentType" : 5126,
            "count" : 672,
            "type" : "VEC2"
        },
        {
            "bufferView" : 15,
            "componentType" : 5123,
            "count" : 672,
            "type" : "SCALAR"
        },
        {
            "bufferView" : 16,
            "componentType" : 5126,
            "count" : 13398,
            "max" : [
                7.456343650817871,
                1.313810110092163,
                74.38639068603516
            ],
            "min" : [
                -83.7028579711914,
                -0.02726471610367298,
                -7.8651251792907715
            ],
            "type" : "VEC3"
        },
        {
            "bufferView" : 17,
            "componentType" : 5126,
            "count" : 13398,
            "type" : "VEC3"
        },
        {
            "bufferView" : 18,
            "componentType" : 5126,
            "count" : 13398,
            "type" : "VEC2"
        },
        {
            "bufferView" : 19,
            "componentType" : 5123,
            "count" : 16008,
            "type" : "SCALAR"
        },
        {
            "bufferView" : 20,
            "componentType" : 5126,
            "count" : 2354,
            "max" : [
                10.597275733947754,
                0.6939429640769958,
                55.392059326171875
            ],
            "min" : [
                -71.86676025390625,
                -0.0033574290573596954,
                -12.277154922485352
            ],
            "type" : "VEC3"
        },
        {
            "bufferView" : 21,
            "componentType" : 5126,
            "count" : 2354,
            "type" : "VEC3"
        },
        {
            "bufferView" : 22,
            "componentType" : 5126,
            "count" : 2354,
            "type" : "VEC2"
        },
        {
            "bufferView" : 23,
            "componentType" : 5123,
            "count" : 2706,
            "type" : "SCALAR"
        },
        {
            "bufferView" : 24,
            "componentType" : 5126,
            "count" : 5580,
            "max" : [
                5.195718765258789,
                1.204857349395752,
                68.96784973144531
            ],
            "min" : [
                -66.1556167602539,
                -0.0004112738824915141,
                -12.577372550964355
            ],
            "type" : "VEC3"
        },
        {
            "bufferView" : 25,
            "componentType" : 5126,
            "count" : 5580,
            "type" : "VEC3"
        },
        {
            "bufferView" : 26,
            "componentType" : 5126,
            "count" : 5580,
            "type" : "VEC2"
        },
        {
            "bufferView" : 27,
            "componentType" : 5123,
            "count" : 5580,
            "type" : "SCALAR"
        },
        {
            "bufferView" : 28,
            "componentType" : 5126,
            "count" : 1320,
            "max" : [
                5.241780757904053,
                1.185505747795105,
                68.954345703125
            ],
            "min" : [
                -66.13473510742188,
                0.6739217638969421,
                -12.582731246948242
            ],
            "type" : "VEC3"
        },
        {
            "bufferView" : 29,
            "componentType" : 5126,
            "count" : 1320,
            "type" : "VEC3"
        },
        {
            "bufferView" : 30,
            "componentType" : 5126,
            "count" : 1320,
            "type" : "VEC2"
        },
        {
            "bufferView" : 31,
            "componentType" : 5123,
            "count" : 1320,
            "type" : "SCALAR"
        }
    ],
    "bufferViews" : [
        {
            "buffer" : 0,
            "byteLength" : 13440,
            "byteOffset" : 0
        },
        {
            "buffer" : 0,
            "byteLength" : 13440,
            "byteOffset" : 13440
        },
        {
            "buffer" : 0,
            "byteLength" : 8960,
            "byteOffset" : 26880
        },
        {
            "buffer" : 0,
            "byteLength" : 3696,
            "byteOffset" : 35840
        },
        {
            "buffer" : 0,
            "byteLength" : 19824,
            "byteOffset" : 39536
        },
        {
            "buffer" : 0,
            "byteLength" : 19824,
            "byteOffset" : 59360
        },
        {
            "buffer" : 0,
            "byteLength" : 13216,
            "byteOffset" : 79184
        },
        {
            "buffer" : 0,
            "byteLength" : 3864,
            "byteOffset" : 92400
        },
        {
            "buffer" : 0,
            "byteLength" : 25200,
            "byteOffset" : 96264
        },
        {
            "buffer" : 0,
            "byteLength" : 25200,
            "byteOffset" : 121464
        },
        {
            "buffer" : 0,
            "byteLength" : 16800,
            "byteOffset" : 146664
        },
        {
            "buffer" : 0,
            "byteLength" : 4200,
            "byteOffset" : 163464
        },
        {
            "buffer" : 0,
            "byteLength" : 8064,
            "byteOffset" : 167664
        },
        {
            "buffer" : 0,
            "byteLength" : 8064,
            "byteOffset" : 175728
        },
        {
            "buffer" : 0,
            "byteLength" : 5376,
            "byteOffset" : 183792
        },
        {
            "buffer" : 0,
            "byteLength" : 1344,
            "byteOffset" : 189168
        },
        {
            "buffer" : 0,
            "byteLength" : 160776,
            "byteOffset" : 190512
        },
        {
            "buffer" : 0,
            "byteLength" : 160776,
            "byteOffset" : 351288
        },
        {
            "buffer" : 0,
            "byteLength" : 107184,
            "byteOffset" : 512064
        },
        {
            "buffer" : 0,
            "byteLength" : 32016,
            "byteOffset" : 619248
        },
        {
            "buffer" : 0,
            "byteLength" : 28248,
            "byteOffset" : 651264
        },
        {
            "buffer" : 0,
            "byteLength" : 28248,
            "byteOffset" : 679512
        },
        {
            "buffer" : 0,
            "byteLength" : 18832,
            "byteOffset" : 707760
        },
        {
            "buffer" : 0,
            "byteLength" : 5412,
            "byteOffset" : 726592
        },
        {
            "buffer" : 0,
            "byteLength" : 66960,
            "byteOffset" : 732004
        },
        {
            "buffer" : 0,
            "byteLength" : 66960,
            "byteOffset" : 798964
        },
        {
            "buffer" : 0,
            "byteLength" : 44640,
            "byteOffset" : 865924
        },
        {
            "buffer" : 0,
            "byteLength" : 11160,
            "byteOffset" : 910564
        },
        {
            "buffer" : 0,
            "byteLength" : 15840,
            "byteOffset" : 921724
        },
        {
            "buffer" : 0,
            "byteLength" : 15840,
            "byteOffset" : 937564
        },
        {
            "buffer" : 0,
            "byteLength" : 10560,
            "byteOffset" : 953404
        },
        {
            "buffer" : 0,
            "byteLength" : 2640,
            "byteOffset" : 963964
        }
    ],
    "buffers" : [
        {
            "byteLength" : 966604,
            "uri" : "data:application/octet-stream;base64,"
        }
    ]
}
