{
    "asset" : {
        "generator" : "Khronos glTF Blender I/O v1.8.19",
        "version" : "2.0"
    },
    "scene" : 0,
    "scenes" : [
        {
            "name" : "Scene",
            "nodes" : [
                0
            ]
        }
    ],
    "nodes" : [
        {
            "mesh" : 0,
            "name" : "Mushroom1"
        }
    ],
    "materials" : [
        {
            "doubleSided" : true,
            "name" : "Mushroom3_2",
            "pbrMetallicRoughness" : {
                "baseColorFactor" : [
                    0.800000011920929,
                    0.800000011920929,
                    0.800000011920929,
                    1
                ],
                "metallicFactor" : 0,
                "roughnessFactor" : 0.5
            }
        },
        {
            "doubleSided" : true,
            "name" : "Mushroom3_1",
            "pbrMetallicRoughness" : {
                "baseColorFactor" : [
                    0.8000000715255737,
                    0.030903631821274757,
                    0.03958727791905403,
                    1
                ],
                "metallicFactor" : 0,
                "roughnessFactor" : 0.5
            }
        }
    ],
    "meshes" : [
        {
            "name" : "Icosphere.005",
            "primitives" : [
                {
                    "attributes" : {
                        "POSITION" : 0,
                        "NORMAL" : 1,
                        "TEXCOORD_0" : 2
                    },
                    "indices" : 3,
                    "material" : 0
                },
                {
                    "attributes" : {
                        "POSITION" : 4,
                        "NORMAL" : 5,
                        "TEXCOORD_0" : 6
                    },
                    "indices" : 7,
                    "material" : 1
                }
            ]
        }
    ],
    "accessors" : [
        {
            "bufferView" : 0,
            "componentType" : 5126,
            "count" : 558,
            "max" : [
                0.32671913504600525,
                1.204857349395752,
                0.40394967794418335
            ],
            "min" : [
                -0.42411965131759644,
                -0.0004112738824915141,
                -0.37697139382362366
            ],
            "type" : "VEC3"
        },
        {
            "bufferView" : 1,
            "componentType" : 5126,
            "count" : 558,
            "type" : "VEC3"
        },
        {
            "bufferView" : 2,
            "componentType" : 5126,
            "count" : 558,
            "type" : "VEC2"
        },
        {
            "bufferView" : 3,
            "componentType" : 5123,
            "count" : 558,
            "type" : "SCALAR"
        },
        {
            "bufferView" : 4,
            "componentType" : 5126,
            "count" : 132,
            "max" : [
                0.3727811574935913,
                1.185505747795105,
                0.3904412090778351
            ],
            "min" : [
                -0.4032385051250458,
                0.6739217638969421,
                -0.382329523563385
            ],
            "type" : "VEC3"
        },
        {
            "bufferView" : 5,
            "componentType" : 5126,
            "count" : 132,
            "type" : "VEC3"
        },
        {
            "bufferView" : 6,
            "componentType" : 5126,
            "count" : 132,
            "type" : "VEC2"
        },
        {
            "bufferView" : 7,
            "componentType" : 5123,
            "count" : 132,
            "type" : "SCALAR"
        }
    ],
    "bufferViews" : [
        {
            "buffer" : 0,
            "byteLength" : 6696,
            "byteOffset" : 0
        },
        {
            "buffer" : 0,
            "byteLength" : 6696,
            "byteOffset" : 6696
        },
        {
            "buffer" : 0,
            "byteLength" : 4464,
            "byteOffset" : 13392
        },
        {
            "buffer" : 0,
            "byteLength" : 1116,
            "byteOffset" : 17856
        },
        {
            "buffer" : 0,
            "byteLength" : 1584,
            "byteOffset" : 18972
        },
        {
            "buffer" : 0,
            "byteLength" : 1584,
            "byteOffset" : 20556
        },
        {
            "buffer" : 0,
            "byteLength" : 1056,
            "byteOffset" : 22140
        },
        {
            "buffer" : 0,
            "byteLength" : 264,
            "byteOffset" : 23196
        }
    ],
    "buffers" : [
        {
            "byteLength" : 23460,
            "uri" : "data:application/octet-stream;base64,"
        }
    ]
}
