{
    "asset" : {
        "generator" : "Khronos glTF Blender I/O v1.8.19",
        "version" : "2.0"
    },
    "scene" : 0,
    "scenes" : [
        {
            "name" : "Scene",
            "nodes" : [
                0
            ]
        }
    ],
    "nodes" : [
        {
            "mesh" : 0,
            "name" : "Branch"
        }
    ],
    "materials" : [
        {
            "doubleSided" : true,
            "name" : "Branch1_1",
            "pbrMetallicRoughness" : {
                "baseColorFactor" : [
                    0.18446825444698334,
                    0.08150526136159897,
                    0.03984404727816582,
                    1
                ],
                "metallicFactor" : 0,
                "roughnessFactor" : 0.5
            }
        },
        {
            "doubleSided" : true,
            "name" : "Branch1_2",
            "pbrMetallicRoughness" : {
                "baseColorFactor" : [
                    0.5668382048606873,
                    0.33737584948539734,
                    0.15602286159992218,
                    1
                ],
                "metallicFactor" : 0,
                "roughnessFactor" : 0.5
            }
        }
    ],
    "meshes" : [
        {
            "name" : "Cylinder.003",
            "primitives" : [
                {
                    "attributes" : {
                        "POSITION" : 0,
                        "NORMAL" : 1,
                        "TEXCOORD_0" : 2
                    },
                    "indices" : 3,
                    "material" : 0
                },
                {
                    "attributes" : {
                        "POSITION" : 4,
                        "NORMAL" : 5,
                        "TEXCOORD_0" : 6
                    },
                    "indices" : 7,
                    "material" : 1
                }
            ]
        }
    ],
    "accessors" : [
        {
            "bufferView" : 0,
            "componentType" : 5126,
            "count" : 150,
            "max" : [
                1.413416862487793,
                0.5317587852478027,
                0.2595568597316742
            ],
            "min" : [
                -1.338141679763794,
                -0.2134617567062378,
                -0.26901912689208984
            ],
            "type" : "VEC3"
        },
        {
            "bufferView" : 1,
            "componentType" : 5126,
            "count" : 150,
            "type" : "VEC3"
        },
        {
            "bufferView" : 2,
            "componentType" : 5126,
            "count" : 150,
            "type" : "VEC2"
        },
        {
            "bufferView" : 3,
            "componentType" : 5123,
            "count" : 150,
            "type" : "SCALAR"
        },
        {
            "bufferView" : 4,
            "componentType" : 5126,
            "count" : 48,
            "max" : [
                1.433997392654419,
                0.21099616587162018,
                0.2576545476913452
            ],
            "min" : [
                -1.4458478689193726,
                -0.2134617567062378,
                -0.26901912689208984
            ],
            "type" : "VEC3"
        },
        {
            "bufferView" : 5,
            "componentType" : 5126,
            "count" : 48,
            "type" : "VEC3"
        },
        {
            "bufferView" : 6,
            "componentType" : 5126,
            "count" : 48,
            "type" : "VEC2"
        },
        {
            "bufferView" : 7,
            "componentType" : 5123,
            "count" : 48,
            "type" : "SCALAR"
        }
    ],
    "bufferViews" : [
        {
            "buffer" : 0,
            "byteLength" : 1800,
            "byteOffset" : 0
        },
        {
            "buffer" : 0,
            "byteLength" : 1800,
            "byteOffset" : 1800
        },
        {
            "buffer" : 0,
            "byteLength" : 1200,
            "byteOffset" : 3600
        },
        {
            "buffer" : 0,
            "byteLength" : 300,
            "byteOffset" : 4800
        },
        {
            "buffer" : 0,
            "byteLength" : 576,
            "byteOffset" : 5100
        },
        {
            "buffer" : 0,
            "byteLength" : 576,
            "byteOffset" : 5676
        },
        {
            "buffer" : 0,
            "byteLength" : 384,
            "byteOffset" : 6252
        },
        {
            "buffer" : 0,
            "byteLength" : 96,
            "byteOffset" : 6636
        }
    ],
    "buffers" : [
        {
            "byteLength" : 6732,
            "uri" : "data:application/octet-stream;base64,"
        }
    ]
}
