{
    "asset" : {
        "generator" : "Khronos glTF Blender I/O v1.8.19",
        "version" : "2.0"
    },
    "scene" : 0,
    "scenes" : [
        {
            "name" : "Scene",
            "nodes" : [
                0
            ]
        }
    ],
    "nodes" : [
        {
            "mesh" : 0,
            "name" : "Mushroom2"
        }
    ],
    "materials" : [
        {
            "doubleSided" : true,
            "name" : "Mushroom4_1",
            "pbrMetallicRoughness" : {
                "baseColorFactor" : [
                    1,
                    0.6774550080299377,
                    0.3910706341266632,
                    1
                ],
                "metallicFactor" : 0,
                "roughnessFactor" : 0.5
            }
        },
        {
            "doubleSided" : true,
            "name" : "Mushroom4_2",
            "pbrMetallicRoughness" : {
                "baseColorFactor" : [
                    0.7742757201194763,
                    0.2715284824371338,
                    0.05924093350768089,
                    1
                ],
                "metallicFactor" : 0,
                "roughnessFactor" : 0.5
            }
        }
    ],
    "meshes" : [
        {
            "name" : "Cylinder.054",
            "primitives" : [
                {
                    "attributes" : {
                        "POSITION" : 0,
                        "NORMAL" : 1,
                        "TEXCOORD_0" : 2
                    },
                    "indices" : 3,
                    "material" : 0
                },
                {
                    "attributes" : {
                        "POSITION" : 4,
                        "NORMAL" : 5,
                        "TEXCOORD_0" : 6
                    },
                    "indices" : 7,
                    "material" : 1
                }
            ]
        }
    ],
    "accessors" : [
        {
            "bufferView" : 0,
            "componentType" : 5126,
            "count" : 80,
            "max" : [
                0.08164387196302414,
                0.4258040189743042,
                0.13323786854743958
            ],
            "min" : [
                -0.13009895384311676,
                -1.524827908383486e-08,
                -0.12747687101364136
            ],
            "type" : "VEC3"
        },
        {
            "bufferView" : 1,
            "componentType" : 5126,
            "count" : 80,
            "type" : "VEC3"
        },
        {
            "bufferView" : 2,
            "componentType" : 5126,
            "count" : 80,
            "type" : "VEC2"
        },
        {
            "bufferView" : 3,
            "componentType" : 5123,
            "count" : 132,
            "type" : "SCALAR"
        },
        {
            "bufferView" : 4,
            "componentType" : 5126,
            "count" : 96,
            "max" : [
                0.27118679881095886,
                0.813351571559906,
                0.31198805570602417
            ],
            "min" : [
                -0.2854060232639313,
                0.2983107268810272,
                -0.2778804898262024
            ],
            "type" : "VEC3"
        },
        {
            "bufferView" : 5,
            "componentType" : 5126,
            "count" : 96,
            "type" : "VEC3"
        },
        {
            "bufferView" : 6,
            "componentType" : 5126,
            "count" : 96,
            "type" : "VEC2"
        },
        {
            "bufferView" : 7,
            "componentType" : 5123,
            "count" : 138,
            "type" : "SCALAR"
        }
    ],
    "bufferViews" : [
        {
            "buffer" : 0,
            "byteLength" : 960,
            "byteOffset" : 0
        },
        {
            "buffer" : 0,
            "byteLength" : 960,
            "byteOffset" : 960
        },
        {
            "buffer" : 0,
            "byteLength" : 640,
            "byteOffset" : 1920
        },
        {
            "buffer" : 0,
            "byteLength" : 264,
            "byteOffset" : 2560
        },
        {
            "buffer" : 0,
            "byteLength" : 1152,
            "byteOffset" : 2824
        },
        {
            "buffer" : 0,
            "byteLength" : 1152,
            "byteOffset" : 3976
        },
        {
            "buffer" : 0,
            "byteLength" : 768,
            "byteOffset" : 5128
        },
        {
            "buffer" : 0,
            "byteLength" : 276,
            "byteOffset" : 5896
        }
    ],
    "buffers" : [
        {
            "byteLength" : 6172,
            "uri" : "data:application/octet-stream;base64,"
        }
    ]
}
