{
    "asset" : {
        "generator" : "Khronos glTF Blender I/O v1.8.19",
        "version" : "2.0"
    },
    "scene" : 0,
    "scenes" : [
        {
            "name" : "Scene",
            "nodes" : [
                0
            ]
        }
    ],
    "nodes" : [
        {
            "mesh" : 0,
            "name" : "Stump1"
        }
    ],
    "materials" : [
        {
            "doubleSided" : true,
            "name" : "Stump1_1",
            "pbrMetallicRoughness" : {
                "baseColorFactor" : [
                    0.1456618309020996,
                    0.0683770477771759,
                    0.030883237719535828,
                    1
                ],
                "metallicFactor" : 0,
                "roughnessFactor" : 0.5
            }
        },
        {
            "doubleSided" : true,
            "name" : "Stump1_2",
            "pbrMetallicRoughness" : {
                "baseColorFactor" : [
                    0.4704551696777344,
                    0.20507709681987762,
                    0.06571134179830551,
                    1
                ],
                "metallicFactor" : 0,
                "roughnessFactor" : 0.5
            }
        }
    ],
    "meshes" : [
        {
            "name" : "Cylinder.004",
            "primitives" : [
                {
                    "attributes" : {
                        "POSITION" : 0,
                        "NORMAL" : 1,
                        "TEXCOORD_0" : 2
                    },
                    "indices" : 3,
                    "material" : 0
                },
                {
                    "attributes" : {
                        "POSITION" : 4,
                        "NORMAL" : 5,
                        "TEXCOORD_0" : 6
                    },
                    "indices" : 7,
                    "material" : 1
                }
            ]
        }
    ],
    "accessors" : [
        {
            "bufferView" : 0,
            "componentType" : 5126,
            "count" : 320,
            "max" : [
                1.3104382753372192,
                2.876840114593506,
                1.0100092887878418
            ],
            "min" : [
                -1.022251844406128,
                0,
                -1.0100092887878418
            ],
            "type" : "VEC3"
        },
        {
            "bufferView" : 1,
            "componentType" : 5126,
            "count" : 320,
            "type" : "VEC3"
        },
        {
            "bufferView" : 2,
            "componentType" : 5126,
            "count" : 320,
            "type" : "VEC2"
        },
        {
            "bufferView" : 3,
            "componentType" : 5123,
            "count" : 336,
            "type" : "SCALAR"
        },
        {
            "bufferView" : 4,
            "componentType" : 5126,
            "count" : 42,
            "max" : [
                1.2310456037521362,
                1.9247264862060547,
                0.7826511263847351
            ],
            "min" : [
                -0.7826511263847351,
                1.3851767778396606,
                -0.7826971411705017
            ],
            "type" : "VEC3"
        },
        {
            "bufferView" : 5,
            "componentType" : 5126,
            "count" : 42,
            "type" : "VEC3"
        },
        {
            "bufferView" : 6,
            "componentType" : 5126,
            "count" : 42,
            "type" : "VEC2"
        },
        {
            "bufferView" : 7,
            "componentType" : 5123,
            "count" : 42,
            "type" : "SCALAR"
        }
    ],
    "bufferViews" : [
        {
            "buffer" : 0,
            "byteLength" : 3840,
            "byteOffset" : 0
        },
        {
            "buffer" : 0,
            "byteLength" : 3840,
            "byteOffset" : 3840
        },
        {
            "buffer" : 0,
            "byteLength" : 2560,
            "byteOffset" : 7680
        },
        {
            "buffer" : 0,
            "byteLength" : 672,
            "byteOffset" : 10240
        },
        {
            "buffer" : 0,
            "byteLength" : 504,
            "byteOffset" : 10912
        },
        {
            "buffer" : 0,
            "byteLength" : 504,
            "byteOffset" : 11416
        },
        {
            "buffer" : 0,
            "byteLength" : 336,
            "byteOffset" : 11920
        },
        {
            "buffer" : 0,
            "byteLength" : 84,
            "byteOffset" : 12256
        }
    ],
    "buffers" : [
        {
            "byteLength" : 12340,
            "uri" : "data:application/octet-stream;base64,"
        }
    ]
}
