{
    "asset" : {
        "generator" : "Khronos glTF Blender I/O v1.8.19",
        "version" : "2.0"
    },
    "scene" : 0,
    "scenes" : [
        {
            "name" : "Scene",
            "nodes" : [
                0
            ]
        }
    ],
    "nodes" : [
        {
            "mesh" : 0,
            "name" : "Plane.002",
            "rotation" : [
                0,
                -0.8741573095321655,
                0,
                -0.4856429398059845
            ],
            "scale" : [
                150,
                200,
                -150
            ],
            "translation" : [
                -55.52220153808594,
                -5.954130172729492,
                98.11370086669922
            ]
        }
    ],
    "materials" : [
        {
            "doubleSided" : true,
            "name" : "Material.001",
            "pbrMetallicRoughness" : {
                "baseColorFactor" : [
                    0.27714622020721436,
                    0.20791545510292053,
                    0.20791545510292053,
                    1
                ],
                "metallicFactor" : 0,
                "roughnessFactor" : 0.5
            }
        },
        {
            "doubleSided" : true,
            "name" : "GRASS",
            "pbrMetallicRoughness" : {
                "baseColorFactor" : [
                    0.5383229851722717,
                    0.8000000715255737,
                    0.17168207466602325,
                    1
                ],
                "metallicFactor" : 0,
                "roughnessFactor" : 0.5
            }
        },
        {
            "doubleSided" : true,
            "name" : "SNOW",
            "pbrMetallicRoughness" : {
                "baseColorFactor" : [
                    0.800000011920929,
                    0.800000011920929,
                    0.800000011920929,
                    1
                ],
                "metallicFactor" : 0,
                "roughnessFactor" : 0.5
            }
        }
    ],
    "meshes" : [
        {
            "name" : "Plane.004",
            "primitives" : [
                {
                    "attributes" : {
                        "POSITION" : 0,
                        "NORMAL" : 1
                    },
                    "indices" : 2,
                    "material" : 0
                },
                {
                    "attributes" : {
                        "POSITION" : 3,
                        "NORMAL" : 4
                    },
                    "indices" : 5,
                    "material" : 1
                },
                {
                    "attributes" : {
                        "POSITION" : 6,
                        "NORMAL" : 7
                    },
                    "indices" : 8,
                    "material" : 2
                }
            ]
        }
    ],
    "accessors" : [
        {
            "bufferView" : 0,
            "componentType" : 5126,
            "count" : 8412,
            "max" : [
                1.5707792043685913,
                0.30827298760414124,
                0.6579853892326355
            ],
            "min" : [
                -0.8472421765327454,
                -0.017044587060809135,
                -2.059994697570801
            ],
            "type" : "VEC3"
        },
        {
            "bufferView" : 1,
            "componentType" : 5126,
            "count" : 8412,
            "type" : "VEC3"
        },
        {
            "bufferView" : 2,
            "componentType" : 5123,
            "count" : 12726,
            "type" : "SCALAR"
        },
        {
            "bufferView" : 3,
            "componentType" : 5126,
            "count" : 10008,
            "max" : [
                1.5829288959503174,
                0.0408298633992672,
                0.8019802570343018
            ],
            "min" : [
                -0.8472421765327454,
                -0.017049424350261688,
                -2.059994697570801
            ],
            "type" : "VEC3"
        },
        {
            "bufferView" : 4,
            "componentType" : 5126,
            "count" : 10008,
            "type" : "VEC3"
        },
        {
            "bufferView" : 5,
            "componentType" : 5123,
            "count" : 11016,
            "type" : "SCALAR"
        },
        {
            "bufferView" : 6,
            "componentType" : 5126,
            "count" : 702,
            "max" : [
                1.1683756113052368,
                0.30827298760414124,
                0.38126832246780396
            ],
            "min" : [
                -0.46358850598335266,
                -0.016201365739107132,
                -1.5044353008270264
            ],
            "type" : "VEC3"
        },
        {
            "bufferView" : 7,
            "componentType" : 5126,
            "count" : 702,
            "type" : "VEC3"
        },
        {
            "bufferView" : 8,
            "componentType" : 5123,
            "count" : 702,
            "type" : "SCALAR"
        }
    ],
    "bufferViews" : [
        {
            "buffer" : 0,
            "byteLength" : 100944,
            "byteOffset" : 0
        },
        {
            "buffer" : 0,
            "byteLength" : 100944,
            "byteOffset" : 100944
        },
        {
            "buffer" : 0,
            "byteLength" : 25452,
            "byteOffset" : 201888
        },
        {
            "buffer" : 0,
            "byteLength" : 120096,
            "byteOffset" : 227340
        },
        {
            "buffer" : 0,
            "byteLength" : 120096,
            "byteOffset" : 347436
        },
        {
            "buffer" : 0,
            "byteLength" : 22032,
            "byteOffset" : 467532
        },
        {
            "buffer" : 0,
            "byteLength" : 8424,
            "byteOffset" : 489564
        },
        {
            "buffer" : 0,
            "byteLength" : 8424,
            "byteOffset" : 497988
        },
        {
            "buffer" : 0,
            "byteLength" : 1404,
            "byteOffset" : 506412
        }
    ],
    "buffers" : [
        {
            "byteLength" : 507816,
            "uri" : "data:application/octet-stream;base64,"
        }
    ]
}
