{
    "asset" : {
        "generator" : "Khronos glTF Blender I/O v1.8.19",
        "version" : "2.0"
    },
    "scene" : 0,
    "scenes" : [
        {
            "name" : "Scene",
            "nodes" : [
                0
            ]
        }
    ],
    "nodes" : [
        {
            "mesh" : 0,
            "name" : "Plane",
            "scale" : [
                20.226253509521484,
                20.226253509521484,
                20.226253509521484
            ]
        }
    ],
    "materials" : [
        {
            "doubleSided" : true,
            "name" : "Material",
            "pbrMetallicRoughness" : {
                "baseColorFactor" : [
                    0.27714622020721436,
                    0.20791545510292053,
                    0.20791545510292053,
                    1
                ],
                "metallicFactor" : 0,
                "roughnessFactor" : 0.5
            }
        },
        {
            "doubleSided" : true,
            "name" : "GRASS",
            "pbrMetallicRoughness" : {
                "baseColorFactor" : [
                    0.5383229851722717,
                    0.8000000715255737,
                    0.17168207466602325,
                    1
                ],
                "metallicFactor" : 0,
                "roughnessFactor" : 0.5
            }
        },
        {
            "doubleSided" : true,
            "name" : "SNOW",
            "pbrMetallicRoughness" : {
                "baseColorFactor" : [
                    0.800000011920929,
                    0.800000011920929,
                    0.800000011920929,
                    1
                ],
                "metallicFactor" : 0,
                "roughnessFactor" : 0.5
            }
        }
    ],
    "meshes" : [
        {
            "name" : "Plane.001",
            "primitives" : [
                {
                    "attributes" : {
                        "POSITION" : 0,
                        "NORMAL" : 1
                    },
                    "indices" : 2,
                    "material" : 0
                },
                {
                    "attributes" : {
                        "POSITION" : 3,
                        "NORMAL" : 4
                    },
                    "indices" : 5,
                    "material" : 1
                },
                {
                    "attributes" : {
                        "POSITION" : 6,
                        "NORMAL" : 7
                    },
                    "indices" : 8,
                    "material" : 2
                }
            ]
        }
    ],
    "accessors" : [
        {
            "bufferView" : 0,
            "componentType" : 5126,
            "count" : 1402,
            "max" : [
                0.7425740361213684,
                0.29589349031448364,
                0.6237624883651733
            ],
            "min" : [
                -0.6831682920455933,
                2.9219047064543702e-05,
                -0.632458508014679
            ],
            "type" : "VEC3"
        },
        {
            "bufferView" : 1,
            "componentType" : 5126,
            "count" : 1402,
            "type" : "VEC3"
        },
        {
            "bufferView" : 2,
            "componentType" : 5123,
            "count" : 2121,
            "type" : "SCALAR"
        },
        {
            "bufferView" : 3,
            "componentType" : 5126,
            "count" : 1382,
            "max" : [
                0.7425740361213684,
                0.0408298633992672,
                0.8019802570343018
            ],
            "min" : [
                -0.7227723598480225,
                2.481937553966418e-05,
                -0.8415839672088623
            ],
            "type" : "VEC3"
        },
        {
            "bufferView" : 4,
            "componentType" : 5126,
            "count" : 1382,
            "type" : "VEC3"
        },
        {
            "bufferView" : 5,
            "componentType" : 5123,
            "count" : 1836,
            "type" : "SCALAR"
        },
        {
            "bufferView" : 6,
            "componentType" : 5126,
            "count" : 115,
            "max" : [
                0.04878925159573555,
                0.29589349031448364,
                0.010706557892262936
            ],
            "min" : [
                -0.4059406518936157,
                0.0007960975635796785,
                -0.7029700875282288
            ],
            "type" : "VEC3"
        },
        {
            "bufferView" : 7,
            "componentType" : 5126,
            "count" : 115,
            "type" : "VEC3"
        },
        {
            "bufferView" : 8,
            "componentType" : 5123,
            "count" : 117,
            "type" : "SCALAR"
        }
    ],
    "bufferViews" : [
        {
            "buffer" : 0,
            "byteLength" : 16824,
            "byteOffset" : 0
        },
        {
            "buffer" : 0,
            "byteLength" : 16824,
            "byteOffset" : 16824
        },
        {
            "buffer" : 0,
            "byteLength" : 4242,
            "byteOffset" : 33648
        },
        {
            "buffer" : 0,
            "byteLength" : 16584,
            "byteOffset" : 37892
        },
        {
            "buffer" : 0,
            "byteLength" : 16584,
            "byteOffset" : 54476
        },
        {
            "buffer" : 0,
            "byteLength" : 3672,
            "byteOffset" : 71060
        },
        {
            "buffer" : 0,
            "byteLength" : 1380,
            "byteOffset" : 74732
        },
        {
            "buffer" : 0,
            "byteLength" : 1380,
            "byteOffset" : 76112
        },
        {
            "buffer" : 0,
            "byteLength" : 234,
            "byteOffset" : 77492
        }
    ],
    "buffers" : [
        {
            "byteLength" : 77728,
            "uri" : "data:application/octet-stream;base64,"
        }
    ]
}
