{
    "asset" : {
        "generator" : "Khronos glTF Blender I/O v1.8.19",
        "version" : "2.0"
    },
    "scene" : 0,
    "scenes" : [
        {
            "name" : "Scene",
            "nodes" : [
                0,
                1
            ]
        }
    ],
    "nodes" : [
        {
            "mesh" : 0,
            "name" : "Plane",
            "scale" : [
                638.2720947265625,
                638.2720947265625,
                638.2720947265625
            ],
            "translation" : [
                0,
                -1.5099999904632568,
                0
            ]
        },
        {
            "mesh" : 1,
            "name" : "Rock4",
            "translation" : [
                -0.031113147735595703,
                0.31413352489471436,
                0.07172942161560059
            ]
        }
    ],
    "materials" : [
        {
            "doubleSided" : true,
            "name" : "BG",
            "pbrMetallicRoughness" : {
                "baseColorFactor" : [
                    0.3355470299720764,
                    0.5036773681640625,
                    0.04361487552523613,
                    1
                ],
                "metallicFactor" : 0,
                "roughnessFactor" : 0.5
            }
        },
        {
            "doubleSided" : true,
            "name" : "Rock1_1",
            "pbrMetallicRoughness" : {
                "baseColorFactor" : [
                    0.2834292948246002,
                    0.24782425165176392,
                    0.23078063130378723,
                    1
                ],
                "metallicFactor" : 0,
                "roughnessFactor" : 0.5
            }
        }
    ],
    "meshes" : [
        {
            "name" : "Plane",
            "primitives" : [
                {
                    "attributes" : {
                        "POSITION" : 0,
                        "NORMAL" : 1,
                        "TEXCOORD_0" : 2
                    },
                    "indices" : 3,
                    "material" : 0
                }
            ]
        },
        {
            "name" : "Cylinder.019",
            "primitives" : [
                {
                    "attributes" : {
                        "POSITION" : 4,
                        "NORMAL" : 5,
                        "TEXCOORD_0" : 6
                    },
                    "indices" : 7,
                    "material" : 1
                }
            ]
        }
    ],
    "accessors" : [
        {
            "bufferView" : 0,
            "componentType" : 5126,
            "count" : 4,
            "max" : [
                1,
                0,
                1
            ],
            "min" : [
                -1,
                0,
                -1
            ],
            "type" : "VEC3"
        },
        {
            "bufferView" : 1,
            "componentType" : 5126,
            "count" : 4,
            "type" : "VEC3"
        },
        {
            "bufferView" : 2,
            "componentType" : 5126,
            "count" : 4,
            "type" : "VEC2"
        },
        {
            "bufferView" : 3,
            "componentType" : 5123,
            "count" : 6,
            "type" : "SCALAR"
        },
        {
            "bufferView" : 4,
            "componentType" : 5126,
            "count" : 84,
            "max" : [
                1.7234165668487549,
                3.963357925415039,
                1.727968454360962
            ],
            "min" : [
                -2.002722978591919,
                -0.019062059000134468,
                -1.6499321460723877
            ],
            "type" : "VEC3"
        },
        {
            "bufferView" : 5,
            "componentType" : 5126,
            "count" : 84,
            "type" : "VEC3"
        },
        {
            "bufferView" : 6,
            "componentType" : 5126,
            "count" : 84,
            "type" : "VEC2"
        },
        {
            "bufferView" : 7,
            "componentType" : 5123,
            "count" : 84,
            "type" : "SCALAR"
        }
    ],
    "bufferViews" : [
        {
            "buffer" : 0,
            "byteLength" : 48,
            "byteOffset" : 0
        },
        {
            "buffer" : 0,
            "byteLength" : 48,
            "byteOffset" : 48
        },
        {
            "buffer" : 0,
            "byteLength" : 32,
            "byteOffset" : 96
        },
        {
            "buffer" : 0,
            "byteLength" : 12,
            "byteOffset" : 128
        },
        {
            "buffer" : 0,
            "byteLength" : 1008,
            "byteOffset" : 140
        },
        {
            "buffer" : 0,
            "byteLength" : 1008,
            "byteOffset" : 1148
        },
        {
            "buffer" : 0,
            "byteLength" : 672,
            "byteOffset" : 2156
        },
        {
            "buffer" : 0,
            "byteLength" : 168,
            "byteOffset" : 2828
        }
    ],
    "buffers" : [
        {
            "byteLength" : 2996,
            "uri" : "data:application/octet-stream;base64,"
        }
    ]
}
