{
    "asset" : {
        "generator" : "Khronos glTF Blender I/O v1.8.19",
        "version" : "2.0"
    },
    "scene" : 0,
    "scenes" : [
        {
            "name" : "Scene",
            "nodes" : [
                0
            ]
        }
    ],
    "nodes" : [
        {
            "mesh" : 0,
            "name" : "Tree2"
        }
    ],
    "materials" : [
        {
            "doubleSided" : true,
            "name" : "Tree3_1.001",
            "pbrMetallicRoughness" : {
                "baseColorFactor" : [
                    0.0637078806757927,
                    0.03880103677511215,
                    0.016990941017866135,
                    1
                ],
                "metallicFactor" : 0,
                "roughnessFactor" : 0.5
            }
        },
        {
            "doubleSided" : true,
            "name" : "Tree3_2.001",
            "pbrMetallicRoughness" : {
                "baseColorFactor" : [
                    0.025433937087655067,
                    0.15572208166122437,
                    0.00965164601802826,
                    1
                ],
                "metallicFactor" : 0,
                "roughnessFactor" : 0.5
            }
        }
    ],
    "meshes" : [
        {
            "name" : "Cylinder.024",
            "primitives" : [
                {
                    "attributes" : {
                        "POSITION" : 0,
                        "NORMAL" : 1,
                        "TEXCOORD_0" : 2
                    },
                    "indices" : 3,
                    "material" : 0
                },
                {
                    "attributes" : {
                        "POSITION" : 4,
                        "NORMAL" : 5,
                        "TEXCOORD_0" : 6
                    },
                    "indices" : 7,
                    "material" : 1
                }
            ]
        }
    ],
    "accessors" : [
        {
            "bufferView" : 0,
            "componentType" : 5126,
            "count" : 80,
            "max" : [
                0.8652678728103638,
                10.216526985168457,
                0.7215086221694946
            ],
            "min" : [
                -0.7626250386238098,
                -0.11486882716417313,
                -0.7012410759925842
            ],
            "type" : "VEC3"
        },
        {
            "bufferView" : 1,
            "componentType" : 5126,
            "count" : 80,
            "type" : "VEC3"
        },
        {
            "bufferView" : 2,
            "componentType" : 5126,
            "count" : 80,
            "type" : "VEC2"
        },
        {
            "bufferView" : 3,
            "componentType" : 5123,
            "count" : 132,
            "type" : "SCALAR"
        },
        {
            "bufferView" : 4,
            "componentType" : 5126,
            "count" : 1392,
            "max" : [
                3.691364049911499,
                17.85699462890625,
                3.6551361083984375
            ],
            "min" : [
                -3.5316078662872314,
                4.388625621795654,
                -3.6868650913238525
            ],
            "type" : "VEC3"
        },
        {
            "bufferView" : 5,
            "componentType" : 5126,
            "count" : 1392,
            "type" : "VEC3"
        },
        {
            "bufferView" : 6,
            "componentType" : 5126,
            "count" : 1392,
            "type" : "VEC2"
        },
        {
            "bufferView" : 7,
            "componentType" : 5123,
            "count" : 2124,
            "type" : "SCALAR"
        }
    ],
    "bufferViews" : [
        {
            "buffer" : 0,
            "byteLength" : 960,
            "byteOffset" : 0
        },
        {
            "buffer" : 0,
            "byteLength" : 960,
            "byteOffset" : 960
        },
        {
            "buffer" : 0,
            "byteLength" : 640,
            "byteOffset" : 1920
        },
        {
            "buffer" : 0,
            "byteLength" : 264,
            "byteOffset" : 2560
        },
        {
            "buffer" : 0,
            "byteLength" : 16704,
            "byteOffset" : 2824
        },
        {
            "buffer" : 0,
            "byteLength" : 16704,
            "byteOffset" : 19528
        },
        {
            "buffer" : 0,
            "byteLength" : 11136,
            "byteOffset" : 36232
        },
        {
            "buffer" : 0,
            "byteLength" : 4248,
            "byteOffset" : 47368
        }
    ],
    "buffers" : [
        {
            "byteLength" : 51616,
            "uri" : "data:application/octet-stream;base64,"
        }
    ]
}
